<?xml version="1.0" encoding="iso-8859-1"?>
<!-- Generator: Adobe Illustrator 19.0.0, SVG Export Plug-In . SVG Version: 6.00 Build 0)  -->
<svg version="1.1" id="Capa_1" xmlns="http://www.w3.org/2000/svg" xmlns:xlink="http://www.w3.org/1999/xlink" x="0px" y="0px"
	 viewBox="0 0 350 350" style="enable-background:new 0 0 350 350;" xml:space="preserve">
<g id="XMLID_820_">
	<g id="XMLID_821_">
		<g id="XMLID_822_">
			<rect id="XMLID_50_" x="15" y="280" style="fill:#0052B4;" width="40" height="70"/>
		</g>
		<rect id="XMLID_48_" x="15" y="210" style="fill:#006DF0;" width="40" height="70"/>
		<path id="XMLID_823_" style="fill:#FFD6A0;" d="M331.772,249.118c-6.41-10.645-20.236-14.078-30.883-7.668l-72.639,37.113
			c4.164-4.083,6.75-9.771,6.75-16.064c0-12.427-10.074-22.5-22.5-22.5h-68.211C116,240,102.668,220,55,220c0,50.345,0,100,0,100
			s13,9,30,20c15.17,9.815,22.291,10,33.838,10l74.496-0.027c9.332,0,18.666-3.973,29-8.973s101.77-61,101.77-61
			C334.75,273.589,338.182,259.764,331.772,249.118z"/>
		<path id="XMLID_825_" style="fill:#FFC170;" d="M55,220v100c0,0,13.001,9,30.001,20c15.17,9.815,22.29,10,33.837,10l46.163-0.017
			L55,220z"/>
	</g>
	<g id="XMLID_826_">
		<g id="XMLID_827_">
			<circle id="XMLID_828_" style="fill:#FFDA44;" cx="220" cy="175" r="45"/>
			<path id="XMLID_829_" style="fill:#FF9811;" d="M220,220c-24.853,0-45-20.148-45-45s20.147-45,45-45"/>
			<circle id="XMLID_830_" style="fill:#FFF0B4;" cx="220" cy="175" r="25"/>
		</g>
		<g id="XMLID_831_">
			<circle id="XMLID_832_" style="fill:#FFDA44;" cx="110" cy="135" r="45"/>
			<path id="XMLID_833_" style="fill:#FF9811;" d="M110,180c-24.853,0-45-20.148-45-45s20.147-45,45-45"/>
			<circle id="XMLID_834_" style="fill:#FFF0B4;" cx="110" cy="135" r="25"/>
		</g>
		<g id="XMLID_835_">
			<circle id="XMLID_836_" style="fill:#FFDA44;" cx="180" cy="45" r="45"/>
			<path id="XMLID_837_" style="fill:#FF9811;" d="M180,90c-24.853,0-45-20.147-45-45s20.147-45,45-45"/>
			<circle id="XMLID_838_" style="fill:#FFF0B4;" cx="180" cy="45" r="25"/>
		</g>
	</g>
</g>
<g>
</g>
<g>
</g>
<g>
</g>
<g>
</g>
<g>
</g>
<g>
</g>
<g>
</g>
<g>
</g>
<g>
</g>
<g>
</g>
<g>
</g>
<g>
</g>
<g>
</g>
<g>
</g>
<g>
</g>
</svg>
