<?xml version="1.0" encoding="utf-8"?>
<!-- Generator: Adobe Illustrator 21.0.2, SVG Export Plug-In . SVG Version: 6.00 Build 0)  -->
<svg version="1.1" id="Capa_1" xmlns="http://www.w3.org/2000/svg" xmlns:xlink="http://www.w3.org/1999/xlink" x="0px" y="0px"
	 viewBox="0 0 60 60" style="enable-background:new 0 0 60 60;" xml:space="preserve">
<style type="text/css">
	.st0{fill:#9777A8;}
	.st1{fill:#F29C1F;}
	.st2{fill:#71C285;}
</style>
<g>
	<g>
		<path class="st0" d="M15.8,27.3l-5,5c-0.4,0.4-0.4,1,0,1.4c0.2,0.2,0.5,0.3,0.7,0.3c0.3,0,0.5-0.1,0.7-0.3l5-5
			c0.4-0.4,0.4-1,0-1.4S16.2,26.9,15.8,27.3z"/>
		<path class="st0" d="M25.2,27.3c-0.4-0.4-1-0.4-1.4,0s-0.4,1,0,1.4l6,6c0.2,0.2,0.5,0.3,0.7,0.3s0.5-0.1,0.7-0.3
			c0.4-0.4,0.4-1,0-1.4L25.2,27.3z"/>
		<path class="st0" d="M48.2,24.3c-0.4-0.4-1-0.4-1.4,0l-10,10c-0.4,0.4-0.4,1,0,1.4c0.2,0.2,0.5,0.3,0.7,0.3s0.5-0.1,0.7-0.3l10-10
			C48.6,25.3,48.6,24.7,48.2,24.3z"/>
	</g>
	<circle class="st1" cx="8.5" cy="37" r="5"/>
	<circle class="st2" cx="20.5" cy="25" r="5"/>
	<circle class="st2" cx="51.5" cy="22" r="5"/>
	<circle class="st1" cx="33.5" cy="38" r="5"/>
</g>
</svg>
